<mxfile host="Electron" modified="2023-06-11T12:44:44.464Z" agent="Mozilla/5.0 (Windows NT 10.0; Win64; x64) AppleWebKit/537.36 (KHTML, like Gecko) draw.io/21.2.8 Chrome/112.0.5615.165 Electron/24.2.0 Safari/537.36" etag="pIj4QcFzTPZS8jehPzN9" version="21.2.8" type="device">
  <diagram name="Page-1" id="SjT1U9J1PQw6P1Kr80av">
    <mxGraphModel dx="2245" dy="828" grid="1" gridSize="10" guides="1" tooltips="1" connect="1" arrows="1" fold="1" page="1" pageScale="1" pageWidth="827" pageHeight="1169" math="0" shadow="0">
      <root>
        <mxCell id="0" />
        <mxCell id="1" parent="0" />
        <mxCell id="Afy7KDOPr_7XvBL8b5q0-44" style="edgeStyle=none;rounded=0;orthogonalLoop=1;jettySize=auto;html=1;" parent="1" source="Afy7KDOPr_7XvBL8b5q0-34" target="Afy7KDOPr_7XvBL8b5q0-41" edge="1">
          <mxGeometry relative="1" as="geometry">
            <Array as="points">
              <mxPoint x="460" y="280" />
              <mxPoint x="460" y="600" />
            </Array>
          </mxGeometry>
        </mxCell>
        <mxCell id="Afy7KDOPr_7XvBL8b5q0-9" style="edgeStyle=none;rounded=0;orthogonalLoop=1;jettySize=auto;html=1;" parent="1" source="Afy7KDOPr_7XvBL8b5q0-2" target="Afy7KDOPr_7XvBL8b5q0-8" edge="1">
          <mxGeometry relative="1" as="geometry" />
        </mxCell>
        <mxCell id="Afy7KDOPr_7XvBL8b5q0-2" value="Send a message from one rust binary to another rust binary using ZeroMQ" style="rounded=0;whiteSpace=wrap;html=1;fillColor=#d5e8d4;strokeColor=#82b366;" parent="1" vertex="1">
          <mxGeometry x="80" y="160" width="160" height="80" as="geometry" />
        </mxCell>
        <mxCell id="Afy7KDOPr_7XvBL8b5q0-6" style="rounded=0;orthogonalLoop=1;jettySize=auto;html=1;" parent="1" source="Afy7KDOPr_7XvBL8b5q0-3" target="Afy7KDOPr_7XvBL8b5q0-4" edge="1">
          <mxGeometry relative="1" as="geometry" />
        </mxCell>
        <mxCell id="Afy7KDOPr_7XvBL8b5q0-3" value="Render a black cube against a magenta background" style="rounded=0;whiteSpace=wrap;html=1;fillColor=#d5e8d4;strokeColor=#82b366;" parent="1" vertex="1">
          <mxGeometry x="680" y="160" width="160" height="80" as="geometry" />
        </mxCell>
        <mxCell id="Afy7KDOPr_7XvBL8b5q0-7" style="rounded=0;orthogonalLoop=1;jettySize=auto;html=1;" parent="1" source="Afy7KDOPr_7XvBL8b5q0-4" target="Afy7KDOPr_7XvBL8b5q0-5" edge="1">
          <mxGeometry relative="1" as="geometry" />
        </mxCell>
        <mxCell id="Afy7KDOPr_7XvBL8b5q0-87" style="edgeStyle=none;rounded=0;orthogonalLoop=1;jettySize=auto;html=1;" parent="1" source="Afy7KDOPr_7XvBL8b5q0-4" target="Afy7KDOPr_7XvBL8b5q0-86" edge="1">
          <mxGeometry relative="1" as="geometry" />
        </mxCell>
        <mxCell id="Afy7KDOPr_7XvBL8b5q0-4" value="Controllable camera, pivoting around a (blinn-phong shaded) cube, with world light" style="rounded=0;whiteSpace=wrap;html=1;" parent="1" vertex="1">
          <mxGeometry x="680" y="280" width="160" height="80" as="geometry" />
        </mxCell>
        <mxCell id="Afy7KDOPr_7XvBL8b5q0-39" style="edgeStyle=none;rounded=0;orthogonalLoop=1;jettySize=auto;html=1;" parent="1" source="Afy7KDOPr_7XvBL8b5q0-5" target="Afy7KDOPr_7XvBL8b5q0-38" edge="1">
          <mxGeometry relative="1" as="geometry" />
        </mxCell>
        <mxCell id="Afy7KDOPr_7XvBL8b5q0-5" value="Render (only) the surface of a chunk" style="rounded=0;whiteSpace=wrap;html=1;" parent="1" vertex="1">
          <mxGeometry x="680" y="400" width="160" height="80" as="geometry" />
        </mxCell>
        <mxCell id="Afy7KDOPr_7XvBL8b5q0-12" style="edgeStyle=none;rounded=0;orthogonalLoop=1;jettySize=auto;html=1;" parent="1" source="Afy7KDOPr_7XvBL8b5q0-8" target="Afy7KDOPr_7XvBL8b5q0-11" edge="1">
          <mxGeometry relative="1" as="geometry" />
        </mxCell>
        <mxCell id="Afy7KDOPr_7XvBL8b5q0-8" value="Generate changes in the world model in the player, send these changes through a load balancer to two world servers" style="rounded=0;whiteSpace=wrap;html=1;" parent="1" vertex="1">
          <mxGeometry x="80" y="280" width="160" height="80" as="geometry" />
        </mxCell>
        <mxCell id="Afy7KDOPr_7XvBL8b5q0-10" value="Starting from the player, progress every stage of the log-in flow, notifying every server" style="rounded=0;whiteSpace=wrap;html=1;" parent="1" vertex="1">
          <mxGeometry x="-320" y="760" width="160" height="80" as="geometry" />
        </mxCell>
        <mxCell id="Afy7KDOPr_7XvBL8b5q0-19" style="edgeStyle=none;rounded=0;orthogonalLoop=1;jettySize=auto;html=1;" parent="1" source="Afy7KDOPr_7XvBL8b5q0-11" target="Afy7KDOPr_7XvBL8b5q0-17" edge="1">
          <mxGeometry relative="1" as="geometry" />
        </mxCell>
        <mxCell id="Afy7KDOPr_7XvBL8b5q0-24" style="edgeStyle=none;rounded=0;orthogonalLoop=1;jettySize=auto;html=1;" parent="1" source="Afy7KDOPr_7XvBL8b5q0-69" target="Afy7KDOPr_7XvBL8b5q0-10" edge="1">
          <mxGeometry relative="1" as="geometry" />
        </mxCell>
        <mxCell id="Afy7KDOPr_7XvBL8b5q0-11" value="Request several chunks from a world server through a load balancer" style="rounded=0;whiteSpace=wrap;html=1;" parent="1" vertex="1">
          <mxGeometry x="80" y="400" width="160" height="80" as="geometry" />
        </mxCell>
        <mxCell id="Afy7KDOPr_7XvBL8b5q0-14" style="edgeStyle=none;rounded=0;orthogonalLoop=1;jettySize=auto;html=1;" parent="1" source="Afy7KDOPr_7XvBL8b5q0-13" target="Afy7KDOPr_7XvBL8b5q0-8" edge="1">
          <mxGeometry relative="1" as="geometry" />
        </mxCell>
        <mxCell id="Afy7KDOPr_7XvBL8b5q0-28" style="edgeStyle=none;rounded=0;orthogonalLoop=1;jettySize=auto;html=1;" parent="1" source="Afy7KDOPr_7XvBL8b5q0-13" target="Afy7KDOPr_7XvBL8b5q0-27" edge="1">
          <mxGeometry relative="1" as="geometry" />
        </mxCell>
        <mxCell id="Afy7KDOPr_7XvBL8b5q0-75" style="edgeStyle=none;rounded=0;orthogonalLoop=1;jettySize=auto;html=1;" parent="1" source="Afy7KDOPr_7XvBL8b5q0-13" target="Afy7KDOPr_7XvBL8b5q0-48" edge="1">
          <mxGeometry relative="1" as="geometry">
            <Array as="points">
              <mxPoint x="260" y="280" />
              <mxPoint x="260" y="600" />
            </Array>
          </mxGeometry>
        </mxCell>
        <mxCell id="Afy7KDOPr_7XvBL8b5q0-13" value="Implement a space-efficient and serialisable voxel engine" style="rounded=0;whiteSpace=wrap;html=1;fillColor=#d5e8d4;strokeColor=#82b366;" parent="1" vertex="1">
          <mxGeometry x="280" y="160" width="160" height="80" as="geometry" />
        </mxCell>
        <mxCell id="Afy7KDOPr_7XvBL8b5q0-21" style="edgeStyle=none;rounded=0;orthogonalLoop=1;jettySize=auto;html=1;" parent="1" source="Afy7KDOPr_7XvBL8b5q0-17" target="Afy7KDOPr_7XvBL8b5q0-20" edge="1">
          <mxGeometry relative="1" as="geometry" />
        </mxCell>
        <mxCell id="Afy7KDOPr_7XvBL8b5q0-42" style="edgeStyle=none;rounded=0;orthogonalLoop=1;jettySize=auto;html=1;" parent="1" source="Afy7KDOPr_7XvBL8b5q0-17" target="Afy7KDOPr_7XvBL8b5q0-41" edge="1">
          <mxGeometry relative="1" as="geometry">
            <Array as="points">
              <mxPoint x="280" y="620" />
              <mxPoint x="440" y="620" />
            </Array>
          </mxGeometry>
        </mxCell>
        <mxCell id="Afy7KDOPr_7XvBL8b5q0-47" style="edgeStyle=none;rounded=0;orthogonalLoop=1;jettySize=auto;html=1;" parent="1" source="Afy7KDOPr_7XvBL8b5q0-17" target="Afy7KDOPr_7XvBL8b5q0-45" edge="1">
          <mxGeometry relative="1" as="geometry">
            <mxPoint x="350" y="540" as="targetPoint" />
            <Array as="points">
              <mxPoint x="260" y="640" />
              <mxPoint x="260" y="720" />
            </Array>
          </mxGeometry>
        </mxCell>
        <mxCell id="Afy7KDOPr_7XvBL8b5q0-70" style="edgeStyle=none;rounded=0;orthogonalLoop=1;jettySize=auto;html=1;" parent="1" source="Afy7KDOPr_7XvBL8b5q0-17" target="Afy7KDOPr_7XvBL8b5q0-69" edge="1">
          <mxGeometry relative="1" as="geometry">
            <mxPoint x="-80" y="730" as="targetPoint" />
          </mxGeometry>
        </mxCell>
        <mxCell id="Afy7KDOPr_7XvBL8b5q0-17" value="Log-in a player, and connect with a previously connected player" style="rounded=0;whiteSpace=wrap;html=1;" parent="1" vertex="1">
          <mxGeometry x="80" y="520" width="160" height="80" as="geometry" />
        </mxCell>
        <mxCell id="Afy7KDOPr_7XvBL8b5q0-64" style="edgeStyle=none;rounded=0;orthogonalLoop=1;jettySize=auto;html=1;" parent="1" source="Afy7KDOPr_7XvBL8b5q0-20" target="Afy7KDOPr_7XvBL8b5q0-63" edge="1">
          <mxGeometry relative="1" as="geometry">
            <Array as="points">
              <mxPoint x="260" y="760" />
              <mxPoint x="260" y="960" />
            </Array>
          </mxGeometry>
        </mxCell>
        <mxCell id="Afy7KDOPr_7XvBL8b5q0-20" value="Log-in a player and download all world chunks from different players, without accessing a world server" style="rounded=0;whiteSpace=wrap;html=1;" parent="1" vertex="1">
          <mxGeometry x="80" y="640" width="160" height="80" as="geometry" />
        </mxCell>
        <mxCell id="Afy7KDOPr_7XvBL8b5q0-23" style="edgeStyle=none;rounded=0;orthogonalLoop=1;jettySize=auto;html=1;" parent="1" source="Afy7KDOPr_7XvBL8b5q0-22" target="Afy7KDOPr_7XvBL8b5q0-25" edge="1">
          <mxGeometry relative="1" as="geometry" />
        </mxCell>
        <mxCell id="Afy7KDOPr_7XvBL8b5q0-22" value="Connect to the address server using a web address" style="rounded=0;whiteSpace=wrap;html=1;fillColor=#ffe6cc;strokeColor=#d79b00;" parent="1" vertex="1">
          <mxGeometry x="-320" y="520" width="160" height="80" as="geometry" />
        </mxCell>
        <mxCell id="Afy7KDOPr_7XvBL8b5q0-26" style="edgeStyle=none;rounded=0;orthogonalLoop=1;jettySize=auto;html=1;" parent="1" source="Afy7KDOPr_7XvBL8b5q0-25" target="Afy7KDOPr_7XvBL8b5q0-10" edge="1">
          <mxGeometry relative="1" as="geometry" />
        </mxCell>
        <mxCell id="Afy7KDOPr_7XvBL8b5q0-25" value="&quot;authentication&quot;" style="rounded=0;whiteSpace=wrap;html=1;fillColor=#ffe6cc;strokeColor=#d79b00;" parent="1" vertex="1">
          <mxGeometry x="-320" y="640" width="160" height="80" as="geometry" />
        </mxCell>
        <mxCell id="Afy7KDOPr_7XvBL8b5q0-30" style="edgeStyle=none;rounded=0;orthogonalLoop=1;jettySize=auto;html=1;" parent="1" source="Afy7KDOPr_7XvBL8b5q0-27" target="Afy7KDOPr_7XvBL8b5q0-5" edge="1">
          <mxGeometry relative="1" as="geometry">
            <Array as="points">
              <mxPoint x="480" y="380" />
              <mxPoint x="640" y="380" />
            </Array>
          </mxGeometry>
        </mxCell>
        <mxCell id="Afy7KDOPr_7XvBL8b5q0-37" style="edgeStyle=none;rounded=0;orthogonalLoop=1;jettySize=auto;html=1;" parent="1" source="Afy7KDOPr_7XvBL8b5q0-27" target="Afy7KDOPr_7XvBL8b5q0-33" edge="1">
          <mxGeometry relative="1" as="geometry" />
        </mxCell>
        <mxCell id="Afy7KDOPr_7XvBL8b5q0-62" style="edgeStyle=none;rounded=0;orthogonalLoop=1;jettySize=auto;html=1;" parent="1" source="Afy7KDOPr_7XvBL8b5q0-27" target="Afy7KDOPr_7XvBL8b5q0-57" edge="1">
          <mxGeometry relative="1" as="geometry" />
        </mxCell>
        <mxCell id="Afy7KDOPr_7XvBL8b5q0-27" value="Auto-generate a simple terrain" style="rounded=0;whiteSpace=wrap;html=1;" parent="1" vertex="1">
          <mxGeometry x="280" y="280" width="160" height="80" as="geometry" />
        </mxCell>
        <mxCell id="Afy7KDOPr_7XvBL8b5q0-53" style="edgeStyle=none;rounded=0;orthogonalLoop=1;jettySize=auto;html=1;" parent="1" source="Afy7KDOPr_7XvBL8b5q0-29" target="Afy7KDOPr_7XvBL8b5q0-52" edge="1">
          <mxGeometry relative="1" as="geometry" />
        </mxCell>
        <mxCell id="Afy7KDOPr_7XvBL8b5q0-79" style="edgeStyle=none;rounded=0;orthogonalLoop=1;jettySize=auto;html=1;" parent="1" source="Afy7KDOPr_7XvBL8b5q0-52" target="Afy7KDOPr_7XvBL8b5q0-77" edge="1">
          <mxGeometry relative="1" as="geometry" />
        </mxCell>
        <mxCell id="Afy7KDOPr_7XvBL8b5q0-29" value="Walk around with a simple, untextured player model" style="rounded=0;whiteSpace=wrap;html=1;" parent="1" vertex="1">
          <mxGeometry x="680" y="640" width="160" height="80" as="geometry" />
        </mxCell>
        <mxCell id="Afy7KDOPr_7XvBL8b5q0-36" style="edgeStyle=none;rounded=0;orthogonalLoop=1;jettySize=auto;html=1;" parent="1" source="Afy7KDOPr_7XvBL8b5q0-33" target="Afy7KDOPr_7XvBL8b5q0-29" edge="1">
          <mxGeometry relative="1" as="geometry">
            <Array as="points">
              <mxPoint x="660" y="520" />
              <mxPoint x="660" y="600" />
            </Array>
          </mxGeometry>
        </mxCell>
        <mxCell id="Afy7KDOPr_7XvBL8b5q0-33" value="Port AABB collision, drop a cube entity on the terrain" style="rounded=0;whiteSpace=wrap;html=1;" parent="1" vertex="1">
          <mxGeometry x="480" y="400" width="160" height="80" as="geometry" />
        </mxCell>
        <mxCell id="Afy7KDOPr_7XvBL8b5q0-35" style="edgeStyle=none;rounded=0;orthogonalLoop=1;jettySize=auto;html=1;" parent="1" source="Afy7KDOPr_7XvBL8b5q0-34" target="Afy7KDOPr_7XvBL8b5q0-33" edge="1">
          <mxGeometry relative="1" as="geometry" />
        </mxCell>
        <mxCell id="Afy7KDOPr_7XvBL8b5q0-34" value="Implement entities.&lt;br&gt;Simulate the position of an entity in free-fall" style="rounded=0;whiteSpace=wrap;html=1;" parent="1" vertex="1">
          <mxGeometry x="480" y="160" width="160" height="80" as="geometry" />
        </mxCell>
        <mxCell id="Afy7KDOPr_7XvBL8b5q0-40" style="edgeStyle=none;rounded=0;orthogonalLoop=1;jettySize=auto;html=1;" parent="1" source="Afy7KDOPr_7XvBL8b5q0-38" target="Afy7KDOPr_7XvBL8b5q0-29" edge="1">
          <mxGeometry relative="1" as="geometry" />
        </mxCell>
        <mxCell id="Afy7KDOPr_7XvBL8b5q0-84" style="edgeStyle=none;rounded=0;orthogonalLoop=1;jettySize=auto;html=1;" parent="1" source="Afy7KDOPr_7XvBL8b5q0-38" target="Afy7KDOPr_7XvBL8b5q0-82" edge="1">
          <mxGeometry relative="1" as="geometry" />
        </mxCell>
        <mxCell id="Afy7KDOPr_7XvBL8b5q0-85" style="edgeStyle=none;rounded=0;orthogonalLoop=1;jettySize=auto;html=1;" parent="1" source="Afy7KDOPr_7XvBL8b5q0-38" target="Afy7KDOPr_7XvBL8b5q0-83" edge="1">
          <mxGeometry relative="1" as="geometry">
            <Array as="points">
              <mxPoint x="880" y="620" />
              <mxPoint x="1040" y="620" />
            </Array>
          </mxGeometry>
        </mxCell>
        <mxCell id="Afy7KDOPr_7XvBL8b5q0-38" value="Render a distance-limited surface of the world" style="rounded=0;whiteSpace=wrap;html=1;" parent="1" vertex="1">
          <mxGeometry x="680" y="520" width="160" height="80" as="geometry" />
        </mxCell>
        <mxCell id="Afy7KDOPr_7XvBL8b5q0-60" style="edgeStyle=none;rounded=0;orthogonalLoop=1;jettySize=auto;html=1;" parent="1" source="Afy7KDOPr_7XvBL8b5q0-41" target="Afy7KDOPr_7XvBL8b5q0-59" edge="1">
          <mxGeometry relative="1" as="geometry" />
        </mxCell>
        <mxCell id="Afy7KDOPr_7XvBL8b5q0-41" value="Create an entity update in one player, receive and apply this update in another player" style="rounded=0;whiteSpace=wrap;html=1;" parent="1" vertex="1">
          <mxGeometry x="480" y="640" width="160" height="80" as="geometry" />
        </mxCell>
        <mxCell id="Afy7KDOPr_7XvBL8b5q0-56" style="edgeStyle=none;rounded=0;orthogonalLoop=1;jettySize=auto;html=1;" parent="1" source="Afy7KDOPr_7XvBL8b5q0-45" target="Afy7KDOPr_7XvBL8b5q0-54" edge="1">
          <mxGeometry relative="1" as="geometry" />
        </mxCell>
        <mxCell id="Afy7KDOPr_7XvBL8b5q0-45" value="Create a voxel update in one player, receive and apply this update in another player" style="rounded=0;whiteSpace=wrap;html=1;" parent="1" vertex="1">
          <mxGeometry x="280" y="760" width="160" height="80" as="geometry" />
        </mxCell>
        <mxCell id="Afy7KDOPr_7XvBL8b5q0-49" style="edgeStyle=none;rounded=0;orthogonalLoop=1;jettySize=auto;html=1;" parent="1" source="Afy7KDOPr_7XvBL8b5q0-48" target="Afy7KDOPr_7XvBL8b5q0-45" edge="1">
          <mxGeometry relative="1" as="geometry" />
        </mxCell>
        <mxCell id="Afy7KDOPr_7XvBL8b5q0-73" style="edgeStyle=none;rounded=0;orthogonalLoop=1;jettySize=auto;html=1;" parent="1" source="Afy7KDOPr_7XvBL8b5q0-48" target="Afy7KDOPr_7XvBL8b5q0-72" edge="1">
          <mxGeometry relative="1" as="geometry" />
        </mxCell>
        <mxCell id="Afy7KDOPr_7XvBL8b5q0-48" value="Place a voxel that updates itself after some time" style="rounded=0;whiteSpace=wrap;html=1;" parent="1" vertex="1">
          <mxGeometry x="280" y="640" width="160" height="80" as="geometry" />
        </mxCell>
        <mxCell id="Afy7KDOPr_7XvBL8b5q0-55" style="edgeStyle=none;rounded=0;orthogonalLoop=1;jettySize=auto;html=1;" parent="1" source="Afy7KDOPr_7XvBL8b5q0-52" target="Afy7KDOPr_7XvBL8b5q0-54" edge="1">
          <mxGeometry relative="1" as="geometry">
            <Array as="points">
              <mxPoint x="640" y="860" />
              <mxPoint x="480" y="860" />
            </Array>
          </mxGeometry>
        </mxCell>
        <mxCell id="Afy7KDOPr_7XvBL8b5q0-78" style="edgeStyle=none;rounded=0;orthogonalLoop=1;jettySize=auto;html=1;" parent="1" source="Afy7KDOPr_7XvBL8b5q0-52" target="Afy7KDOPr_7XvBL8b5q0-76" edge="1">
          <mxGeometry relative="1" as="geometry" />
        </mxCell>
        <mxCell id="Afy7KDOPr_7XvBL8b5q0-52" value="select a block from a (new) hotbar, place it, and remove another" style="rounded=0;whiteSpace=wrap;html=1;" parent="1" vertex="1">
          <mxGeometry x="680" y="760" width="160" height="80" as="geometry" />
        </mxCell>
        <mxCell id="Afy7KDOPr_7XvBL8b5q0-65" style="edgeStyle=none;rounded=0;orthogonalLoop=1;jettySize=auto;html=1;" parent="1" source="Afy7KDOPr_7XvBL8b5q0-54" target="Afy7KDOPr_7XvBL8b5q0-63" edge="1">
          <mxGeometry relative="1" as="geometry" />
        </mxCell>
        <mxCell id="Afy7KDOPr_7XvBL8b5q0-54" value="Place a block with one player, see this change in another player" style="rounded=0;whiteSpace=wrap;html=1;" parent="1" vertex="1">
          <mxGeometry x="280" y="880" width="160" height="80" as="geometry" />
        </mxCell>
        <mxCell id="Afy7KDOPr_7XvBL8b5q0-61" style="edgeStyle=none;rounded=0;orthogonalLoop=1;jettySize=auto;html=1;" parent="1" source="Afy7KDOPr_7XvBL8b5q0-57" target="Afy7KDOPr_7XvBL8b5q0-59" edge="1">
          <mxGeometry relative="1" as="geometry">
            <Array as="points">
              <mxPoint x="460" y="640" />
              <mxPoint x="460" y="720" />
            </Array>
          </mxGeometry>
        </mxCell>
        <mxCell id="Afy7KDOPr_7XvBL8b5q0-57" value="create a pathfinding algorithm that can efficiently find paths between two points in the terrain" style="rounded=0;whiteSpace=wrap;html=1;" parent="1" vertex="1">
          <mxGeometry x="280" y="520" width="160" height="80" as="geometry" />
        </mxCell>
        <mxCell id="Afy7KDOPr_7XvBL8b5q0-59" value="Implement a dog, which follows players on a distance" style="rounded=0;whiteSpace=wrap;html=1;" parent="1" vertex="1">
          <mxGeometry x="480" y="760" width="160" height="80" as="geometry" />
        </mxCell>
        <mxCell id="Afy7KDOPr_7XvBL8b5q0-63" value="Place an updatable block with one player, log out, have another player log in and receive updates from the block" style="rounded=0;whiteSpace=wrap;html=1;" parent="1" vertex="1">
          <mxGeometry x="280" y="1000" width="160" height="80" as="geometry" />
        </mxCell>
        <mxCell id="Afy7KDOPr_7XvBL8b5q0-66" value="Start one world server, start another, shutdown the first.&lt;br&gt;the world should not be inconsistent from a player&#39;s perspective" style="rounded=0;whiteSpace=wrap;html=1;" parent="1" vertex="1">
          <mxGeometry x="-120" y="760" width="160" height="80" as="geometry" />
        </mxCell>
        <mxCell id="Afy7KDOPr_7XvBL8b5q0-68" value="&lt;h1&gt;Milestones&lt;/h1&gt;&lt;div&gt;green is done&lt;/div&gt;&lt;div&gt;orange costs money&lt;/div&gt;" style="text;html=1;strokeColor=none;fillColor=none;spacing=5;spacingTop=-20;whiteSpace=wrap;overflow=hidden;rounded=0;" parent="1" vertex="1">
          <mxGeometry x="-320" y="160" width="190" height="120" as="geometry" />
        </mxCell>
        <mxCell id="Afy7KDOPr_7XvBL8b5q0-71" style="edgeStyle=none;rounded=0;orthogonalLoop=1;jettySize=auto;html=1;" parent="1" source="Afy7KDOPr_7XvBL8b5q0-69" target="Afy7KDOPr_7XvBL8b5q0-66" edge="1">
          <mxGeometry relative="1" as="geometry" />
        </mxCell>
        <mxCell id="Afy7KDOPr_7XvBL8b5q0-69" value="Start up a selection of servers, have no failures, misses or inconsistencies" style="rounded=0;whiteSpace=wrap;html=1;" parent="1" vertex="1">
          <mxGeometry x="-120" y="640" width="160" height="80" as="geometry" />
        </mxCell>
        <mxCell id="Afy7KDOPr_7XvBL8b5q0-72" value="Place a voxel that updates itself, log out, log in, receive all missed updates" style="rounded=0;whiteSpace=wrap;html=1;" parent="1" vertex="1">
          <mxGeometry x="80" y="760" width="160" height="80" as="geometry" />
        </mxCell>
        <mxCell id="Afy7KDOPr_7XvBL8b5q0-76" value="Select variations of a block in the hotbar" style="rounded=0;whiteSpace=wrap;html=1;" parent="1" vertex="1">
          <mxGeometry x="680" y="880" width="160" height="80" as="geometry" />
        </mxCell>
        <mxCell id="Afy7KDOPr_7XvBL8b5q0-77" value="Open the inventory, and change the selection in the hotbar" style="rounded=0;whiteSpace=wrap;html=1;" parent="1" vertex="1">
          <mxGeometry x="880" y="880" width="160" height="80" as="geometry" />
        </mxCell>
        <mxCell id="Afy7KDOPr_7XvBL8b5q0-82" value="Implement fustrum culling" style="rounded=0;whiteSpace=wrap;html=1;" parent="1" vertex="1">
          <mxGeometry x="880" y="640" width="160" height="80" as="geometry" />
        </mxCell>
        <mxCell id="Afy7KDOPr_7XvBL8b5q0-83" value="Implement world-fog" style="rounded=0;whiteSpace=wrap;html=1;" parent="1" vertex="1">
          <mxGeometry x="1080" y="640" width="160" height="80" as="geometry" />
        </mxCell>
        <mxCell id="Afy7KDOPr_7XvBL8b5q0-86" value="Start youtube channel?" style="rounded=0;whiteSpace=wrap;html=1;" parent="1" vertex="1">
          <mxGeometry x="880" y="400" width="160" height="80" as="geometry" />
        </mxCell>
        <mxCell id="X09qMr5cM8zMZ-8g00jK-3" style="rounded=0;orthogonalLoop=1;jettySize=auto;html=1;" edge="1" parent="1" source="X09qMr5cM8zMZ-8g00jK-2" target="Afy7KDOPr_7XvBL8b5q0-8">
          <mxGeometry relative="1" as="geometry" />
        </mxCell>
        <mxCell id="X09qMr5cM8zMZ-8g00jK-2" value="Build log server" style="rounded=0;whiteSpace=wrap;html=1;fillColor=#d5e8d4;strokeColor=#82b366;" vertex="1" parent="1">
          <mxGeometry x="-120" y="160" width="160" height="80" as="geometry" />
        </mxCell>
        <mxCell id="X09qMr5cM8zMZ-8g00jK-4" value="Create GUI for the different servers&lt;br&gt;(slint)" style="rounded=0;whiteSpace=wrap;html=1;" vertex="1" parent="1">
          <mxGeometry x="880" y="160" width="160" height="80" as="geometry" />
        </mxCell>
      </root>
    </mxGraphModel>
  </diagram>
</mxfile>
